<svg width="50" height="49" viewBox="0 0 50 49" fill="none" xmlns="http://www.w3.org/2000/svg">
<rect x="0.748047" y="0.5" width="48" height="48" rx="24" stroke="black"/>
<path d="M36.8699 23.4368H25.3114V26.7867H33.517C33.1011 31.4618 29.1054 33.462 25.324 33.462C20.4964 33.462 16.2612 29.7562 16.2612 24.5412C16.2612 19.5102 20.2947 15.6204 25.3366 15.6204C29.2314 15.6204 31.5129 18.0377 31.5129 18.0377L33.9078 15.6081C33.9078 15.6081 30.8322 12.2705 25.2105 12.2705C18.051 12.2705 12.5176 18.1604 12.5176 24.5412C12.5176 30.7379 17.7233 36.8119 25.3996 36.8119C32.1431 36.8119 37.0589 32.3085 37.0589 25.6578C37.0589 24.2467 36.8699 23.4368 36.8699 23.4368Z" fill="black"/>
</svg>
