<svg width="50" height="50" viewBox="0 0 50 50" fill="none" xmlns="http://www.w3.org/2000/svg">
<rect x="0.5" y="0.5" width="48.0827" height="48.0827" rx="24.0414" stroke="black"/>
<path fill-rule="evenodd" clip-rule="evenodd" d="M6.13477 30.6769V18.4062H9.48131V30.6769H6.13477ZM11.1546 30.6769V18.4062H15.3378L17.011 24.5416L18.6843 18.4062H22.8675V30.6769H19.521V25.3085L17.8477 30.6769H16.1744L14.5011 25.3085V30.6769H11.1546ZM24.5408 30.6769H29.5606C30.4482 30.6769 31.2994 30.3537 31.927 29.7784C32.5546 29.2031 32.9072 28.4229 32.9072 27.6093V21.4739C32.9072 20.6603 32.5546 19.88 31.927 19.3048C31.2994 18.7295 30.4482 18.4062 29.5606 18.4062H24.5408V30.6769ZM27.8873 20.707H28.724C28.9459 20.707 29.1587 20.7878 29.3156 20.9316C29.4725 21.0755 29.5606 21.2705 29.5606 21.4739V27.6093C29.5606 27.8127 29.4725 28.0077 29.3156 28.1516C29.1587 28.2954 28.9459 28.3762 28.724 28.3762H27.8873V20.707ZM34.5804 18.4062H37.927V22.1657C38.4858 21.7945 39.3124 21.4739 40.4369 21.4739C42.4448 21.4739 42.9468 22.497 42.9468 23.0078V29.1431C42.9468 29.6539 42.4448 30.6769 40.4369 30.6769C39.3124 30.6769 38.4858 30.3564 37.927 29.9852V30.6769H34.5804V18.4062ZM39.6003 27.6093V24.5416C39.6003 24.3382 39.5121 24.1431 39.3552 23.9993C39.1983 23.8555 38.9855 23.7747 38.7636 23.7747C38.5417 23.7747 38.3289 23.8555 38.172 23.9993C38.0151 24.1431 37.927 24.3382 37.927 24.5416V27.6093C37.927 27.8127 38.0151 28.0077 38.172 28.1516C38.3289 28.2954 38.5417 28.3762 38.7636 28.3762C38.9855 28.3762 39.1983 28.2954 39.3552 28.1516C39.5121 28.0077 39.6003 27.8127 39.6003 27.6093Z" fill="black"/>
</svg>
