<svg width="50" height="50" viewBox="0 0 50 50" fill="none" xmlns="http://www.w3.org/2000/svg">
<g clip-path="url(#clip0_378_457)">
<path d="M7.81945 20.0024H5.43945V28.8578H7.81945V20.0024Z" fill="black"/>
<path d="M12.8593 20.0024L12.3408 24.1382L12.0008 21.8936C11.8988 21.17 11.8053 20.5451 11.7118 20.0107H8.63477V28.8578H10.7173V23.0118L11.6013 28.8578H13.0888L13.9218 22.872V28.8496H15.9958V20.0024H12.8593Z" fill="black"/>
<path d="M19.7104 21.5977C19.8039 21.6471 19.8719 21.7457 19.8889 21.8526C19.9314 22.1075 19.9399 22.3624 19.9314 22.6173V26.046C19.9569 26.4077 19.9229 26.7777 19.8124 27.1313C19.7274 27.2711 19.5234 27.3286 19.1834 27.3286V21.5155C19.3619 21.5073 19.5489 21.532 19.7104 21.5977ZM19.7104 28.858C20.1354 28.8744 20.5689 28.8415 20.9854 28.7675C21.2574 28.7264 21.5124 28.6113 21.7249 28.4551C21.9204 28.2906 22.0649 28.0768 22.1329 27.8302C22.2349 27.304 22.2689 26.7695 22.2519 26.2351V23.1188C22.2519 22.5597 22.2009 21.9924 22.1159 21.4415C22.0734 21.1537 21.9459 20.8824 21.7504 20.6604C21.5039 20.4137 21.1809 20.2328 20.8324 20.1588C20.1014 20.0273 19.3534 19.978 18.6054 20.0108H16.7949V28.858H19.7104Z" fill="black"/>
<path d="M26.1031 26.7036C26.1116 26.9749 26.0946 27.2544 26.0436 27.5176C26.0011 27.6244 25.8056 27.682 25.6611 27.682C25.5421 27.6984 25.4231 27.6244 25.3806 27.5176C25.3126 27.2873 25.2871 27.0407 25.3041 26.8022V24.4342C25.2871 24.1958 25.3126 23.9491 25.3721 23.7189C25.4146 23.612 25.5336 23.5544 25.6441 23.5709C25.7886 23.5709 25.9841 23.6284 26.0266 23.7436C26.0946 23.9738 26.1201 24.2204 26.1031 24.4589V26.7036ZM23.0176 20.0024V28.8578H25.1511L25.2956 28.2904C25.4656 28.5042 25.6866 28.6769 25.9331 28.8002C26.2051 28.9153 26.4941 28.9729 26.7831 28.9729C27.1316 28.9811 27.4716 28.8824 27.7521 28.6851C28.0071 28.5289 28.1941 28.2904 28.2791 28.0109C28.3811 27.6244 28.4236 27.2216 28.4236 26.8187V24.3109C28.4321 23.9573 28.4151 23.612 28.3896 23.2667C28.3556 23.0858 28.2791 22.9213 28.1686 22.7733C28.0411 22.5924 27.8541 22.4527 27.6416 22.3704C27.3781 22.2718 27.0976 22.2224 26.8171 22.2307C26.5281 22.2307 26.2391 22.28 25.9671 22.3869C25.7206 22.502 25.5081 22.6582 25.3296 22.8638V20.0189H23.0176V20.0024Z" fill="black"/>
<path d="M29.2734 20.0026H31.6364C32.1379 19.9862 32.6309 20.0355 33.1239 20.1424C33.4214 20.2164 33.6849 20.3562 33.9059 20.5617C34.0844 20.7508 34.2034 20.9811 34.2544 21.2277C34.3224 21.6224 34.3564 22.0253 34.3394 22.4364V23.1928C34.3649 23.6039 34.3054 24.0233 34.1609 24.4097C34.0249 24.6811 33.7954 24.8866 33.5064 25.0017C33.1069 25.1497 32.6819 25.2155 32.2569 25.1991H31.6279V28.7182H29.2734V20.0026ZM31.6194 21.4908V23.7108H31.7979C31.9594 23.7273 32.1294 23.6697 32.2399 23.5628C32.3419 23.3655 32.3929 23.1435 32.3674 22.9215V22.2062C32.3929 22.0006 32.3419 21.7951 32.2229 21.6224C32.0444 21.5155 31.8319 21.4662 31.6194 21.4908Z" fill="black"/>
<path d="M36.5918 22.4116L36.5068 23.2421C36.7958 22.6501 37.8243 22.4527 38.3768 22.4198L37.7733 24.5247C37.5013 24.5083 37.2208 24.5576 36.9743 24.6645C36.8128 24.7467 36.7023 24.8865 36.6598 25.0592C36.6003 25.4456 36.5748 25.8403 36.5833 26.235V28.7263H34.6113V22.4116H36.5918Z" fill="black"/>
<path d="M43.7325 26.2515C43.7495 26.6955 43.707 27.1395 43.6305 27.5753C43.5455 27.8713 43.3925 28.1426 43.1715 28.3646C42.925 28.6195 42.6105 28.8004 42.2705 28.899C41.8625 29.0224 41.4375 29.0799 41.0125 29.0717C40.5535 29.0799 40.0945 29.0306 39.6525 28.9237C39.338 28.8497 39.0575 28.6935 38.8195 28.4797C38.6155 28.2741 38.471 28.0275 38.386 27.7644C38.2755 27.3368 38.2245 26.901 38.233 26.4653V24.7715C38.2075 24.2864 38.2925 23.793 38.471 23.3326C38.641 22.9626 38.947 22.6666 39.321 22.4939C39.814 22.2555 40.358 22.1404 40.9105 22.1568C41.378 22.1486 41.854 22.2144 42.296 22.3624C42.636 22.461 42.942 22.6337 43.197 22.8722C43.3925 23.0613 43.5455 23.2915 43.6305 23.5464C43.7155 23.8999 43.758 24.2535 43.741 24.6153V26.2515H43.7325ZM41.3355 24.1137C41.3525 23.8999 41.327 23.6779 41.2675 23.4641C41.1995 23.3819 41.0975 23.3326 40.987 23.3326C40.8765 23.3326 40.7745 23.3819 40.7065 23.4641C40.6385 23.6697 40.613 23.8917 40.63 24.1137V27.123C40.613 27.3286 40.6385 27.5424 40.7065 27.7397C40.7575 27.8384 40.868 27.8959 40.9785 27.8795C41.089 27.8959 41.208 27.8466 41.2675 27.7479C41.327 27.567 41.3525 27.3697 41.3355 27.1806V24.1137Z" fill="black"/>
</g>
<rect x="0.582031" y="0.5" width="48.0827" height="48.0827" rx="24.0414" stroke="black"/>
<defs>
<clipPath id="clip0_378_457">
<rect x="0.0820312" width="49.0827" height="49.0827" rx="24.5414" fill="white"/>
</clipPath>
</defs>
</svg>
