<svg width="50" height="50" viewBox="0 0 50 50" fill="none" xmlns="http://www.w3.org/2000/svg">
<rect x="0.666016" y="0.5" width="48.0827" height="48.0827" rx="24.0414" stroke="black"/>
<path d="M20.1631 16.1338C20.1631 17.0991 19.5178 17.9299 18.3443 17.9299C17.24 17.9299 16.5273 17.1464 16.5273 16.1811C16.5273 15.1903 17.2181 14.3159 18.3452 14.3159C19.4723 14.3159 20.1413 15.1431 20.1631 16.1338ZM16.5273 30.6768V18.8606H20.1631V30.6768H16.5273ZM21.981 22.8999C21.981 21.4956 21.9346 20.3222 21.8883 19.3087H25.155L25.3168 20.8748H25.3859C25.8458 20.1377 26.9729 19.0569 28.8598 19.0569C31.1613 19.0569 32.8882 20.5976 32.8882 23.9125V30.6768H29.2525V24.4406C29.2525 22.9917 28.7008 21.8865 27.4346 21.8865C26.4693 21.8865 25.9858 22.6682 25.7322 23.3126C25.6395 23.5435 25.6167 23.8652 25.6167 24.1879V30.6768H21.981V22.8999Z" fill="black"/>
</svg>
