<svg width="50" height="49" viewBox="0 0 50 49" fill="none" xmlns="http://www.w3.org/2000/svg">
<rect x="0.748047" y="0.5" width="48" height="48" rx="24" stroke="black"/>
<path d="M13.9688 23.3024C13.9688 18.7856 13.9687 16.5266 15.3725 15.124C16.7763 13.7214 19.0342 13.7202 23.551 13.7202H25.9465C30.4633 13.7202 32.7224 13.7202 34.125 15.124C35.5276 16.5278 35.5287 18.7856 35.5287 23.3024V25.698C35.5287 30.2148 35.5287 32.4738 34.125 33.8764C32.7212 35.279 30.4633 35.2802 25.9465 35.2802H23.551C19.0342 35.2802 16.7751 35.2802 15.3725 33.8764C13.9699 32.4726 13.9688 30.2148 13.9688 25.698V23.3024Z" stroke="black" stroke-width="2.18145"/>
<path d="M30.1385 20.9068C31.1307 20.9068 31.9351 20.1024 31.9351 19.1101C31.9351 18.1179 31.1307 17.3135 30.1385 17.3135C29.1462 17.3135 28.3418 18.1179 28.3418 19.1101C28.3418 20.1024 29.1462 20.9068 30.1385 20.9068Z" fill="black"/>
<path d="M24.7476 28.0934C26.7322 28.0934 28.341 26.4846 28.341 24.5001C28.341 22.5155 26.7322 20.9067 24.7476 20.9067C22.7631 20.9067 21.1543 22.5155 21.1543 24.5001C21.1543 26.4846 22.7631 28.0934 24.7476 28.0934Z" stroke="black" stroke-width="2.18145"/>
</svg>
